<?xml version="1.0" encoding="utf-8"?>
<svg version="1.1" id="layer" xmlns="http://www.w3.org/2000/svg" xmlns:xlink="http://www.w3.org/1999/xlink" x="0px" y="0px"
	 viewBox="0 0 652 652" style="enable-background:new 0 0 652 652;" xml:space="preserve">
<path clip-rule="evenodd" fill-rule="evenodd"  d="M208,315.3h-10.8v20.9c0,5.6,3.7,5.5,10.8,5.2v8.5c-14.5,1.7-20.2-2.3-20.2-13.6v-20.9h-8v-9.1h8v-11.7l9.4-2.8
	v14.5H208V315.3z M249.2,306.2h9.4v43.6h-9.4v-6.3c-3.3,4.6-8.5,7.4-15.3,7.4c-11.9,0-21.7-10-21.7-22.9c0-13,9.9-22.9,21.7-22.9
	c6.8,0,12,2.8,15.3,7.3V306.2z M235.4,342c7.9,0,13.8-5.8,13.8-14c0-8.1-5.9-14-13.8-14c-7.8,0-13.8,5.8-13.8,14
	C221.6,336.2,227.6,342,235.4,342L235.4,342z M274.3,299.7c-3.3,0-6-2.8-6-6c0-3.3,2.7-6,6-6c3.3,0,6,2.7,6,6
	C280.4,296.9,277.6,299.7,274.3,299.7L274.3,299.7z M269.6,349.8v-43.6h9.4v43.6H269.6z M289.9,349.8v-63.7h9.4v63.7H289.9z
	 M360.5,306.2h9.9l-13.7,43.6h-9.2l-9.1-29.4l-9.2,29.4H320l-13.7-43.6h9.9l8.5,30.1l9.2-30.1h9l9.1,30.1L360.5,306.2z M382.2,299.7
	c-3.3,0-6-2.8-6-6c0-3.3,2.7-6,6-6c3.3,0,6,2.7,6,6C388.2,296.9,385.5,299.7,382.2,299.7L382.2,299.7z M377.4,349.8v-43.6h9.4v43.6
	H377.4z M420.7,305.1c9.8,0,16.8,6.6,16.8,18v26.8h-9.4V324c0-6.6-3.8-10.1-9.8-10.1c-6.2,0-11.1,3.7-11.1,12.6v23.4h-9.4v-43.6h9.4
	v5.6C410.1,307.3,414.8,305.1,420.7,305.1L420.7,305.1z M482.1,288.8h9.4v61.1h-9.4v-6.3c-3.3,4.6-8.5,7.4-15.3,7.4
	c-11.9,0-21.7-10-21.7-22.9c0-13,9.9-22.9,21.7-22.9c6.8,0,12,2.8,15.3,7.3V288.8z M468.4,342c7.9,0,13.8-5.8,13.8-14
	c0-8.1-5.9-14-13.8-14c-7.8,0-13.8,5.8-13.8,14C454.6,336.2,460.5,342,468.4,342L468.4,342z M523.1,351c-13.2,0-23-10-23-22.9
	c0-13,9.9-22.9,23-22.9c8.6,0,16,4.4,19.5,11.3l-8.1,4.7c-1.9-4.1-6.2-6.7-11.4-6.7c-7.7,0-13.5,5.8-13.5,13.7
	c0,7.9,5.8,13.7,13.5,13.7c5.2,0,9.5-2.7,11.6-6.7l8.1,4.6C539.1,346.5,531.7,351,523.1,351L523.1,351z M558.3,318.3
	c0,7.9,23.5,3.1,23.5,19.3c0,8.7-7.6,13.4-17,13.4c-8.7,0-15-3.9-17.8-10.2l8.1-4.7c1.4,3.9,4.9,6.3,9.7,6.3c4.2,0,7.4-1.4,7.4-4.9
	c0-7.8-23.5-3.4-23.5-19c0-8.2,7.1-13.3,16-13.3c7.2,0,13.1,3.3,16.1,9.1l-7.9,4.4c-1.6-3.4-4.6-5-8.2-5
	C561.3,313.6,558.3,315.1,558.3,318.3L558.3,318.3z M598.5,318.3c0,7.9,23.5,3.1,23.5,19.3c0,8.7-7.6,13.4-17,13.4
	c-8.7,0-15-3.9-17.8-10.2l8.1-4.7c1.4,3.9,4.9,6.3,9.7,6.3c4.2,0,7.4-1.4,7.4-4.9c0-7.8-23.5-3.4-23.5-19c0-8.2,7.1-13.3,16-13.3
	c7.2,0,13.1,3.3,16.1,9.1l-7.9,4.4c-1.6-3.4-4.6-5-8.2-5C601.5,313.6,598.5,315.1,598.5,318.3L598.5,318.3z M598.5,318.3"/>
<path fill="#06B6D4" clip-rule="evenodd" fill-rule="evenodd" d="M84,284c-16.5,0-26.9,8.3-31,24.8c6.2-8.3,13.4-11.4,21.7-9.3c4.7,1.2,8.1,4.6,11.8,8.4
	c6.1,6.2,13.1,13.3,28.5,13.3c16.5,0,26.9-8.3,31-24.8c-6.2,8.3-13.4,11.4-21.7,9.3c-4.7-1.2-8.1-4.6-11.8-8.4
	C106.4,291.1,99.4,284,84,284L84,284z M53,321.1c-16.5,0-26.9,8.3-31,24.8c6.2-8.3,13.4-11.4,21.7-9.3c4.7,1.2,8.1,4.6,11.8,8.4
	c6.1,6.2,13.1,13.3,28.5,13.3c16.5,0,26.9-8.3,31-24.8c-6.2,8.3-13.4,11.4-21.7,9.3c-4.7-1.2-8.1-4.6-11.8-8.4
	C75.4,328.3,68.4,321.1,53,321.1L53,321.1z M53,321.1"/>
</svg>
